<svg width="40" height="34" viewBox="0 0 40 34" fill="none" xmlns="http://www.w3.org/2000/svg">
<path d="M7.16383 0.695312C6.80445 0.914062 6.99195 0.625 3.20289 6.72656C0.0544531 11.7891 0.0466406 11.7969 0.0153906 12.2734C-0.000234438 12.6562 0.0232031 12.7969 0.171641 13.0234C0.273203 13.1797 4.59352 17.8125 9.78102 23.3125C16.5154 30.4531 19.2888 33.3359 19.4607 33.3984C19.781 33.5078 20.2185 33.5078 20.5388 33.3984C20.7107 33.3359 23.4841 30.4531 30.2185 23.3125C35.406 17.8125 39.7263 13.1797 39.8279 13.0234C39.9763 12.7969 39.9998 12.6562 39.9841 12.2734C39.9529 11.7969 39.9451 11.7812 37.117 7.23438C32.9295 0.507812 33.1795 0.890625 32.8279 0.6875L32.5154 0.515625H19.992H7.4607L7.16383 0.695312ZM12.4998 3.26562C12.492 3.32031 12.1482 5.07031 11.7341 7.15625L10.9685 10.9453L7.35914 10.9688L3.74977 10.9844L4.12477 10.3828C4.3357 10.0469 5.42945 8.28906 6.55445 6.46875L8.60914 3.17188H10.5545C12.0623 3.17188 12.4998 3.19531 12.4998 3.26562ZM24.7185 3.30469C24.7888 3.53906 26.3279 10.7969 26.3279 10.8906C26.3279 10.9609 24.742 10.9844 20.0388 10.9844C16.5779 10.9844 13.7498 10.9609 13.7498 10.9219C13.742 10.8906 14.0857 9.13281 14.5076 7.01562L15.2732 3.17188H19.9763C24.3826 3.17188 24.6795 3.17969 24.7185 3.30469ZM33.8123 7.05469L36.2263 10.9453L32.7107 10.9688C30.7732 10.9766 29.1795 10.9688 29.156 10.9453C29.1013 10.8984 27.5076 3.50781 27.4998 3.30469C27.4998 3.17969 27.6404 3.17188 29.4451 3.17188H31.3904L33.8123 7.05469ZM13.6404 19.8906L16.0935 26.0234L15.6326 25.5547C15.1873 25.0938 5.07008 14.3438 4.69508 13.9297L4.49977 13.7188L7.84352 13.7344L11.1873 13.7578L13.6404 19.8906ZM25.906 13.8516C25.492 14.9609 20.0388 28.4062 20.0076 28.4062C19.9763 28.4062 18.6326 25.1016 17.0154 21.0625L14.0779 13.7188H20.0154C25.6404 13.7188 25.9529 13.7266 25.906 13.8516ZM35.3045 13.9297C34.9138 14.3672 24.8045 25.1016 24.3982 25.5156L23.9763 25.9453L24.1404 25.5156C24.4763 24.6484 28.8357 13.8438 28.8748 13.7812C28.8982 13.75 30.3982 13.7188 32.2029 13.7188H35.492L35.3045 13.9297Z" fill="#4C4C4C"/>
</svg>
